<svg width="85" height="85" viewBox="0 0 85 85" fill="none" xmlns="http://www.w3.org/2000/svg">
<circle cx="42.5" cy="42.5" r="42" stroke="white"/>
<path d="M62 63.5001V35.0001C62 34.6558 61.7656 34.3559 61.4316 34.2724L47 30.6641V26.7501C47 26.4102 46.7715 26.1132 46.4434 26.0253L23.9434 20.0253C23.7185 19.9653 23.4779 20.0133 23.2933 20.1554C23.1084 20.2971 23 20.5168 23 20.7501V63.5001H20V65.0001H65V63.5001H62ZM24.5 21.7249L45.5 27.3243V63.5001H41.75V55.2501C41.75 54.8359 41.4142 54.5001 41 54.5001H29C28.5858 54.5001 28.25 54.8359 28.25 55.2501V63.5001H24.5V21.7249ZM29.75 56.0001H34.25V63.5001H29.75V56.0001ZM35.75 63.5001V56.0001H40.25V63.5001H35.75ZM51.5 63.5001V57.5001H56V63.5001H51.5ZM57.5 63.5001V56.7501C57.5 56.3359 57.1642 56.0001 56.75 56.0001H50.75C50.3358 56.0001 50 56.3359 50 56.7501V63.5001H47V32.2107L60.5 35.5857V63.5001H57.5Z" fill="white"/>
<path d="M29.75 51.501H32.75C33.1642 51.501 33.5 51.1652 33.5 50.751V47.751C33.5 47.3368 33.1642 47.001 32.75 47.001H29.75C29.3358 47.001 29 47.3368 29 47.751V50.751C29 51.1652 29.3358 51.501 29.75 51.501ZM30.5 48.501H32V50.001H30.5V48.501Z" fill="white"/>
<path d="M37.25 51.501H40.25C40.6642 51.501 41 51.1652 41 50.751V47.751C41 47.3368 40.6642 47.001 40.25 47.001H37.25C36.8358 47.001 36.5 47.3368 36.5 47.751V50.751C36.5 51.1652 36.8358 51.501 37.25 51.501ZM38 48.501H39.5V50.001H38V48.501Z" fill="white"/>
<path d="M52.25 48.501H49.25C48.8358 48.501 48.5 48.8368 48.5 49.251V52.251C48.5 52.6652 48.8358 53.001 49.25 53.001H52.25C52.6642 53.001 53 52.6652 53 52.251V49.251C53 48.8368 52.6642 48.501 52.25 48.501ZM51.5 51.501H50V50.001H51.5V51.501Z" fill="white"/>
<path d="M58.25 48.501H55.25C54.8358 48.501 54.5 48.8368 54.5 49.251V52.251C54.5 52.6652 54.8358 53.001 55.25 53.001H58.25C58.6642 53.001 59 52.6652 59 52.251V49.251C59 48.8368 58.6642 48.501 58.25 48.501ZM57.5 51.501H56V50.001H57.5V51.501Z" fill="white"/>
<path d="M52.25 42.501H49.25C48.8358 42.501 48.5 42.8368 48.5 43.251V46.251C48.5 46.6652 48.8358 47.001 49.25 47.001H52.25C52.6642 47.001 53 46.6652 53 46.251V43.251C53 42.8368 52.6642 42.501 52.25 42.501ZM51.5 45.501H50V44.001H51.5V45.501Z" fill="white"/>
<path d="M58.25 42.501H55.25C54.8358 42.501 54.5 42.8368 54.5 43.251V46.251C54.5 46.6652 54.8358 47.001 55.25 47.001H58.25C58.6642 47.001 59 46.6652 59 46.251V43.251C59 42.8368 58.6642 42.501 58.25 42.501ZM57.5 45.501H56V44.001H57.5V45.501Z" fill="white"/>
<path d="M52.25 36.501H49.25C48.8358 36.501 48.5 36.8368 48.5 37.251V40.251C48.5 40.6652 48.8358 41.001 49.25 41.001H52.25C52.6642 41.001 53 40.6652 53 40.251V37.251C53 36.8368 52.6642 36.501 52.25 36.501ZM51.5 39.501H50V38.001H51.5V39.501Z" fill="white"/>
<path d="M58.25 36.501H55.25C54.8358 36.501 54.5 36.8368 54.5 37.251V40.251C54.5 40.6652 54.8358 41.001 55.25 41.001H58.25C58.6642 41.001 59 40.6652 59 40.251V37.251C59 36.8368 58.6642 36.501 58.25 36.501ZM57.5 39.501H56V38.001H57.5V39.501Z" fill="white"/>
<path d="M29.75 45.501H32.75C33.1642 45.501 33.5 45.1652 33.5 44.751V41.751C33.5 41.3368 33.1642 41.001 32.75 41.001H29.75C29.3358 41.001 29 41.3368 29 41.751V44.751C29 45.1652 29.3358 45.501 29.75 45.501ZM30.5 42.501H32V44.001H30.5V42.501Z" fill="white"/>
<path d="M37.25 45.501H40.25C40.6642 45.501 41 45.1652 41 44.751V41.751C41 41.3368 40.6642 41.001 40.25 41.001H37.25C36.8358 41.001 36.5 41.3368 36.5 41.751V44.751C36.5 45.1652 36.8358 45.501 37.25 45.501ZM38 42.501H39.5V44.001H38V42.501Z" fill="white"/>
<path d="M29.75 39.501H32.75C33.1642 39.501 33.5 39.1652 33.5 38.751V35.751C33.5 35.3368 33.1642 35.001 32.75 35.001H29.75C29.3358 35.001 29 35.3368 29 35.751V38.751C29 39.1652 29.3358 39.501 29.75 39.501ZM30.5 36.501H32V38.001H30.5V36.501Z" fill="white"/>
<path d="M37.25 39.501H40.25C40.6642 39.501 41 39.1652 41 38.751V35.751C41 35.3368 40.6642 35.001 40.25 35.001H37.25C36.8358 35.001 36.5 35.3368 36.5 35.751V38.751C36.5 39.1652 36.8358 39.501 37.25 39.501ZM38 36.501H39.5V38.001H38V36.501Z" fill="white"/>
<path d="M29.75 33.501H32.75C33.1642 33.501 33.5 33.1652 33.5 32.751V29.751C33.5 29.3368 33.1642 29.001 32.75 29.001H29.75C29.3358 29.001 29 29.3368 29 29.751V32.751C29 33.1652 29.3358 33.501 29.75 33.501ZM30.5 30.501H32V32.001H30.5V30.501Z" fill="white"/>
<path d="M37.25 33.501H40.25C40.6642 33.501 41 33.1652 41 32.751V29.751C41 29.3368 40.6642 29.001 40.25 29.001H37.25C36.8358 29.001 36.5 29.3368 36.5 29.751V32.751C36.5 33.1652 36.8358 33.501 37.25 33.501ZM38 30.501H39.5V32.001H38V30.501Z" fill="white"/>
</svg>
