<svg width="85" height="85" viewBox="0 0 85 85" fill="none" xmlns="http://www.w3.org/2000/svg">
<circle cx="42.5" cy="42.5" r="42" stroke="white"/>
<path d="M41.1442 19.042C40.4724 18.3701 39.5791 18 38.6289 18C37.9039 18 37.2119 18.2155 36.6262 18.6161C36.0405 18.2154 35.3485 18 34.6235 18C33.6734 18 32.78 18.3701 32.1082 19.0419C31.4362 19.7138 31.0662 20.607 31.0662 21.5574C31.0662 22.5075 31.4362 23.4009 32.1082 24.0729L36.1136 28.078C36.2551 28.2195 36.4408 28.2903 36.6263 28.2903C36.8118 28.2903 36.9975 28.2195 37.1391 28.0779L41.1442 24.0727C42.5308 22.6855 42.5307 20.4288 41.1442 19.042ZM40.1185 23.0473L36.6264 26.5396L33.1338 23.0473C32.7359 22.6494 32.5167 22.1202 32.5167 21.5574C32.5167 20.9947 32.7357 20.4655 33.1337 20.0676C33.5316 19.6696 34.0607 19.4504 34.6235 19.4504C35.1863 19.4504 35.7154 19.6696 36.1136 20.0677C36.2495 20.2036 36.434 20.28 36.6264 20.28C36.8188 20.28 37.0032 20.2036 37.1391 20.0676C37.537 19.6696 38.0661 19.4504 38.6289 19.4504C39.1917 19.4504 39.7206 19.6696 40.1185 20.0676C40.9398 20.889 40.9397 22.2258 40.1185 23.0473Z" fill="white"/>
<path d="M47.8439 26.915C47.4395 26.5103 46.9018 26.2876 46.3296 26.2876C45.9748 26.2876 45.6332 26.3734 45.3285 26.535C45.0236 26.3734 44.6819 26.2876 44.327 26.2876C43.755 26.2876 43.2171 26.5104 42.813 26.9148C42.4085 27.3191 42.1858 27.8569 42.1858 28.4289C42.1858 29.0008 42.4084 29.5386 42.813 29.943L44.8159 31.9457C44.9519 32.0816 45.1364 32.158 45.3288 32.158C45.521 32.158 45.7055 32.0816 45.8415 31.9456L47.8439 29.9429C48.6785 29.108 48.6785 27.7495 47.8439 26.915ZM46.818 28.9177L45.3286 30.4074L43.8385 28.9176C43.708 28.7871 43.6362 28.6135 43.6362 28.4289C43.6362 28.2443 43.708 28.0708 43.8386 27.9402C43.969 27.8098 44.1424 27.7379 44.3269 27.7379C44.5116 27.7379 44.6853 27.8099 44.8159 27.9405C44.9519 28.0764 45.1363 28.1528 45.3286 28.1528H45.3289C45.5212 28.1528 45.7056 28.0763 45.8416 27.9402C45.9719 27.8098 46.1451 27.738 46.3295 27.738C46.514 27.738 46.6875 27.8099 46.818 27.9405C47.0874 28.2098 47.0872 28.6481 46.818 28.9177Z" fill="white"/>
<path d="M59.5943 29.6802C59.4145 29.6802 55.1658 29.7059 52.9285 31.9433L48.4325 36.4393L26.9513 31.0696C26.9461 31.0683 26.9408 31.0678 26.9356 31.0666C26.9218 31.0635 26.908 31.0606 26.8942 31.0584C26.8837 31.0566 26.8732 31.0551 26.8628 31.0539C26.8503 31.0524 26.8378 31.0513 26.8253 31.0504C26.8136 31.0496 26.802 31.049 26.7904 31.0487C26.7787 31.0486 26.7669 31.0486 26.7552 31.049C26.7435 31.0494 26.7318 31.0499 26.7201 31.0507C26.708 31.0516 26.6959 31.0531 26.6838 31.0546C26.6731 31.056 26.6624 31.0573 26.652 31.0591C26.6384 31.0615 26.625 31.0644 26.6115 31.0675C26.6029 31.0696 26.5944 31.0714 26.5858 31.0738C26.5706 31.0778 26.5557 31.0827 26.5408 31.0877C26.5343 31.09 26.5276 31.0921 26.521 31.0947C26.5052 31.1007 26.4896 31.1072 26.4741 31.1144C26.4685 31.1169 26.463 31.1193 26.4576 31.1221C26.4423 31.1295 26.4274 31.1376 26.4127 31.1461C26.4069 31.1495 26.4009 31.1529 26.3953 31.1564C26.382 31.1646 26.369 31.1733 26.3561 31.1824C26.3488 31.1876 26.3417 31.1928 26.3346 31.1982C26.3239 31.2064 26.3134 31.215 26.3032 31.2238C26.2943 31.2315 26.2856 31.2393 26.2771 31.2474C26.2724 31.2518 26.2674 31.2557 26.2628 31.2603L24.2119 33.311C24.2084 33.3145 24.2055 33.3183 24.2021 33.3218C24.1928 33.3315 24.1839 33.3413 24.1751 33.3515C24.167 33.361 24.1591 33.3706 24.1515 33.3804C24.1482 33.3846 24.1446 33.3885 24.1414 33.3928C24.1379 33.3975 24.135 33.4025 24.1316 33.4074C24.1237 33.4187 24.116 33.4303 24.1087 33.4421C24.1031 33.451 24.0978 33.46 24.0927 33.4691C24.0862 33.4808 24.0799 33.4926 24.0741 33.5046C24.0692 33.5146 24.0645 33.5245 24.0601 33.5346C24.0552 33.5459 24.0506 33.5573 24.0463 33.5687C24.0422 33.5798 24.0382 33.5911 24.0346 33.6023C24.0311 33.6131 24.0279 33.6239 24.025 33.6347C24.0218 33.6468 24.0188 33.6589 24.0161 33.6711C24.0139 33.6816 24.0119 33.6921 24.0101 33.7026C24.0081 33.7151 24.0062 33.7276 24.0048 33.7401C24.0036 33.7508 24.0026 33.7616 24.0019 33.7723C24.001 33.7846 24.0004 33.7967 24.0001 33.8089C23.9999 33.8203 24 33.8315 24.0003 33.8429C24.0007 33.8545 24.0011 33.866 24.002 33.8776C24.0028 33.8896 24.0041 33.9016 24.0055 33.9135C24.0069 33.9242 24.0083 33.9349 24.0102 33.9455C24.0123 33.9581 24.0148 33.9706 24.0177 33.983C24.0199 33.9931 24.0223 34.003 24.025 34.013C24.0284 34.0256 24.0323 34.0381 24.0364 34.0504C24.0396 34.0603 24.0428 34.0699 24.0466 34.0797C24.0511 34.0916 24.056 34.1035 24.0611 34.1152C24.0654 34.1252 24.0701 34.1352 24.0749 34.145C24.0803 34.1558 24.086 34.1665 24.0919 34.1771C24.0977 34.1877 24.1039 34.1981 24.1103 34.2083C24.1162 34.2178 24.1223 34.227 24.1286 34.2362C24.1362 34.2471 24.1441 34.2578 24.1523 34.2684C24.1586 34.2767 24.1653 34.2848 24.1721 34.2929C24.1811 34.3034 24.1903 34.3137 24.2 34.3237C24.204 34.3279 24.2076 34.3325 24.2117 34.3367C24.2154 34.3404 24.2197 34.3436 24.2234 34.3472C24.2325 34.3559 24.2418 34.3643 24.2513 34.3726C24.2614 34.3812 24.2716 34.3896 24.2819 34.3976C24.2858 34.4006 24.2894 34.4041 24.2934 34.4071L39.3419 45.5296L32.0494 52.8221L28.3726 51.5962C28.3654 51.5937 28.3582 51.5923 28.3509 51.5902C28.3374 51.5861 28.3239 51.582 28.3101 51.5788C28.2983 51.576 28.2864 51.5739 28.2745 51.5717C28.2636 51.5696 28.2528 51.5676 28.2418 51.5661C28.228 51.5642 28.2144 51.563 28.2007 51.5618C28.1912 51.5611 28.1819 51.5602 28.1724 51.5599C28.158 51.5593 28.1437 51.5594 28.1292 51.5597C28.1201 51.5599 28.1112 51.56 28.1021 51.5604C28.0879 51.5613 28.0737 51.5627 28.0596 51.5644C28.0502 51.5655 28.0409 51.5665 28.0316 51.5679C28.0179 51.5701 28.0043 51.5728 27.9907 51.5758C27.9811 51.5779 27.9717 51.5798 27.9624 51.5822C27.9486 51.5857 27.9352 51.59 27.9218 51.5943C27.9128 51.5972 27.9039 51.5999 27.8949 51.6032C27.8806 51.6084 27.8664 51.6144 27.8525 51.6206C27.8449 51.6239 27.8375 51.627 27.83 51.6306C27.814 51.6383 27.7987 51.6467 27.7832 51.6555C27.779 51.6579 27.7745 51.6598 27.7703 51.6624L27.7608 51.6681C27.7596 51.6688 27.7584 51.6695 27.7572 51.6702L24.3581 53.7097C24.3563 53.7107 24.3547 53.7117 24.353 53.7128L24.3518 53.7135C24.3499 53.7146 24.3484 53.7159 24.3465 53.7171C24.328 53.7284 24.3098 53.7404 24.2923 53.7534C24.2867 53.7576 24.2815 53.7623 24.2761 53.7666C24.263 53.7769 24.2499 53.7872 24.2376 53.7984C24.2291 53.806 24.2215 53.8142 24.2135 53.8221C24.2048 53.8307 24.196 53.839 24.1878 53.8481C24.177 53.86 24.1672 53.8725 24.1573 53.885C24.1526 53.891 24.1475 53.8966 24.143 53.9028C24.1299 53.9202 24.118 53.9383 24.1067 53.9568C24.1056 53.9587 24.1043 53.9603 24.1031 53.9621C24.103 53.9623 24.1029 53.9625 24.1028 53.9627C24.078 54.0041 24.0575 54.0476 24.0414 54.0928C24.0345 54.1122 24.0289 54.1317 24.0238 54.1515C24.0231 54.1543 24.022 54.1569 24.0214 54.1598C24.0169 54.1778 24.0135 54.196 24.0104 54.2142C24.0096 54.2191 24.0083 54.2239 24.0077 54.2288C24.0053 54.2442 24.0042 54.2597 24.0029 54.2752C24.0023 54.2833 24.0011 54.2915 24.0008 54.2996C24.0002 54.3113 24.0005 54.323 24.0006 54.3347C24.0005 54.3469 24.0001 54.359 24.0008 54.3712C24.0011 54.3789 24.0022 54.3866 24.0028 54.3944C24.0041 54.4103 24.0053 54.426 24.0076 54.4418C24.0083 54.4462 24.0094 54.4505 24.0101 54.4548C24.0132 54.4735 24.0167 54.4924 24.0214 54.5109C24.0216 54.5119 24.0219 54.5127 24.0221 54.5136C24.0308 54.5472 24.0424 54.5804 24.056 54.6132C24.06 54.623 24.0636 54.6329 24.068 54.6425C24.0692 54.6449 24.0707 54.6473 24.0718 54.6498C24.0813 54.6693 24.0913 54.6885 24.1024 54.7072C24.1027 54.7075 24.1028 54.708 24.103 54.7084C24.1039 54.7098 24.1049 54.7109 24.1058 54.7122C24.1198 54.7355 24.1356 54.7578 24.1524 54.7795C24.1574 54.7859 24.1626 54.7922 24.1677 54.7984C24.1815 54.815 24.196 54.8309 24.2115 54.8464C24.2171 54.8521 24.2227 54.8581 24.2285 54.8636C24.2483 54.8823 24.2692 54.9001 24.2915 54.9166C24.2986 54.9218 24.3062 54.9263 24.3135 54.9313C24.3262 54.94 24.3384 54.949 24.3518 54.957L30.3925 58.5816L29.6816 59.2924C29.3984 59.5756 29.3984 60.0348 29.6816 60.3179C29.8233 60.4595 30.0089 60.5304 30.1945 60.5304C30.38 60.5304 30.5656 60.4596 30.7073 60.3179L31.4181 59.6071L35.0388 65.6413C35.0398 65.6431 35.0409 65.6448 35.0419 65.6465L35.0426 65.6477C35.043 65.6484 35.0436 65.6489 35.044 65.6497C35.0586 65.6739 35.0749 65.697 35.0925 65.7195C35.0971 65.7255 35.1019 65.7312 35.1067 65.7371C35.1208 65.7542 35.1359 65.7707 35.1519 65.7866C35.1572 65.792 35.1623 65.7975 35.1677 65.8027C35.1878 65.8214 35.2088 65.8395 35.2314 65.8562C35.2379 65.8611 35.2449 65.8651 35.2516 65.8698C35.2647 65.8789 35.2776 65.8882 35.2914 65.8965C35.2943 65.8983 35.2975 65.8994 35.3005 65.9011C35.3182 65.9114 35.3365 65.9202 35.3548 65.9289C35.3662 65.9342 35.3772 65.9402 35.3887 65.9449C35.4048 65.9515 35.4214 65.9565 35.4379 65.962C35.4519 65.9666 35.4657 65.9719 35.4799 65.9756C35.4942 65.9794 35.5088 65.9816 35.5231 65.9845C35.5394 65.9877 35.5556 65.9918 35.5721 65.9938C35.5917 65.9964 35.6116 65.9968 35.6316 65.9978C35.6424 65.9982 35.6532 65.9999 35.6638 65.9999C35.664 65.9999 35.6643 65.9998 35.6645 65.9998C35.6647 65.9998 35.665 65.9999 35.6651 65.9999C35.6759 65.9999 35.6867 65.9982 35.6974 65.9978C35.7173 65.9968 35.7372 65.9964 35.7568 65.9938C35.7733 65.9918 35.7897 65.9877 35.8061 65.9844C35.8204 65.9816 35.8348 65.9794 35.849 65.9757C35.8633 65.972 35.8773 65.9666 35.8915 65.9618C35.9078 65.9564 35.9241 65.9515 35.9401 65.9449C35.9518 65.9401 35.9632 65.934 35.9748 65.9285C35.9928 65.92 36.0108 65.9113 36.0281 65.9012C36.0312 65.8994 36.0344 65.8982 36.0376 65.8964C36.052 65.8878 36.0654 65.8782 36.0789 65.8687C36.085 65.8645 36.0913 65.8608 36.0972 65.8563C36.12 65.8394 36.1411 65.8213 36.1614 65.8023C36.1666 65.7973 36.1716 65.792 36.1767 65.7868C36.1927 65.7707 36.208 65.7541 36.2224 65.7367C36.2271 65.731 36.2319 65.7252 36.2364 65.7193C36.2538 65.6969 36.2702 65.6739 36.2848 65.6497C36.2853 65.6489 36.2859 65.6483 36.2863 65.6474L36.2872 65.6459C36.2881 65.6443 36.2892 65.6427 36.2901 65.6411L38.3373 62.2287C38.3418 62.2212 38.3454 62.2135 38.3495 62.2059C38.3557 62.1947 38.362 62.1835 38.3675 62.172C38.3729 62.1608 38.3778 62.1493 38.3826 62.1378C38.3868 62.1277 38.3913 62.1176 38.3951 62.1074C38.3997 62.095 38.4037 62.0824 38.4075 62.0697C38.4106 62.0599 38.4137 62.0501 38.4164 62.0401C38.4197 62.0275 38.4224 62.0147 38.4252 62.002C38.4273 61.9916 38.4295 61.981 38.4312 61.9705C38.433 61.9584 38.4344 61.9463 38.4357 61.9341C38.437 61.9226 38.4382 61.9109 38.4389 61.8993C38.4396 61.8881 38.4398 61.8768 38.4399 61.8655C38.4401 61.8535 38.4402 61.841 38.4397 61.8284C38.4392 61.8177 38.4383 61.807 38.4374 61.7965C38.4364 61.7837 38.4353 61.7709 38.4336 61.758C38.432 61.7469 38.4298 61.7358 38.4279 61.7247C38.4256 61.7127 38.4236 61.7008 38.4207 61.6888C38.4177 61.6764 38.414 61.6641 38.4102 61.6517C38.4079 61.6434 38.4061 61.635 38.4033 61.6268L37.1772 57.9499L58.053 37.0742C58.054 37.073 58.0552 37.0721 58.0563 37.0711C60.2937 34.8337 60.3194 30.5851 60.3194 30.4053C60.3195 30.0048 59.9948 29.6802 59.5943 29.6802ZM25.8327 33.7412L26.9978 32.5763L47.2365 37.6352L40.3791 44.4925L25.8327 33.7412ZM57.0331 36.0429C57.0323 36.0437 57.0314 36.0444 57.0305 36.0453L35.8347 57.2412C35.8323 57.2437 35.8303 57.2463 35.8279 57.2487C35.818 57.2589 35.8087 57.2695 35.7993 57.2803C35.7924 57.2883 35.7854 57.2962 35.7789 57.3043C35.7717 57.3134 35.7651 57.3229 35.7583 57.3324C35.7507 57.3429 35.7432 57.3533 35.7363 57.364C35.7315 57.3714 35.7273 57.3792 35.7228 57.3868C35.7151 57.3999 35.7076 57.4128 35.7008 57.4261C35.6975 57.4327 35.6947 57.4395 35.6914 57.4463C35.6847 57.4607 35.678 57.4751 35.6722 57.4899C35.6693 57.4974 35.6669 57.505 35.6642 57.5126C35.6593 57.5267 35.6542 57.5408 35.6501 57.555C35.6473 57.5651 35.6452 57.5754 35.6426 57.5857C35.6398 57.5976 35.6367 57.6095 35.6344 57.6216C35.6321 57.6345 35.6306 57.6476 35.6289 57.6609C35.6276 57.6705 35.6261 57.68 35.6251 57.6897C35.6239 57.7042 35.6235 57.7186 35.6231 57.7331C35.6229 57.7419 35.6223 57.7507 35.6223 57.7594C35.6224 57.7733 35.6234 57.787 35.6243 57.8009C35.6249 57.8109 35.6253 57.8208 35.6264 57.8307C35.6277 57.8425 35.6296 57.8544 35.6315 57.8663C35.6334 57.8785 35.6352 57.8907 35.6379 57.9029C35.6398 57.9126 35.6424 57.9221 35.6448 57.9317C35.6484 57.946 35.6522 57.9603 35.6567 57.9744C35.6576 57.9774 35.6582 57.9805 35.6592 57.9836L36.9215 61.7694L35.6639 63.8655L32.4746 58.5504L35.4929 55.5321C35.7764 55.2487 35.7764 54.7895 35.4932 54.5063C35.2099 54.223 34.7508 54.223 34.4676 54.5063L31.4494 57.5244L26.1342 54.3352L28.2304 53.0775L32.0161 54.3398C32.0185 54.3407 32.0209 54.3408 32.0233 54.3416C32.0556 54.352 32.0884 54.3601 32.1215 54.3658C32.1296 54.3672 32.1376 54.3682 32.1457 54.3693C32.1756 54.3734 32.2056 54.3761 32.2357 54.3765C32.239 54.3766 32.2422 54.3773 32.2456 54.3773C32.2493 54.3773 32.2529 54.3765 32.2566 54.3765C32.2853 54.376 32.3139 54.3736 32.3425 54.3698C32.3515 54.3685 32.3604 54.3674 32.3693 54.3659C32.4001 54.3606 32.4307 54.3534 32.4608 54.3441C32.4669 54.3421 32.4728 54.3398 32.4789 54.3377C32.5062 54.3284 32.533 54.3174 32.5594 54.3048C32.5643 54.3024 32.5694 54.3004 32.5743 54.2978C32.6027 54.2834 32.6302 54.2668 32.6568 54.2483C32.6637 54.2436 32.6705 54.2383 32.6773 54.2333C32.6981 54.2178 32.7181 54.2012 32.7375 54.1832C32.7434 54.1777 32.7498 54.1726 32.7555 54.1669C32.7564 54.166 32.7573 54.1654 32.7581 54.1645L53.954 32.9687C55.265 31.6576 57.6157 31.2815 58.8268 31.1737C58.7205 32.3829 58.3466 34.7269 57.0331 36.0429Z" fill="white"/>
<path d="M58.9485 63.1729C58.9478 63.1611 58.9466 63.1493 58.9453 63.1375C58.944 63.1265 58.9424 63.1156 58.9405 63.1047C58.9383 63.0909 58.9356 63.0773 58.9325 63.0637C58.9313 63.0584 58.9307 63.0532 58.9294 63.0478L54.2806 44.4503C54.1835 44.0617 53.7895 43.8256 53.4012 43.9227C53.0126 44.0198 52.7764 44.4135 52.8735 44.8021L57.4226 63.0012L56.2577 64.1662L46.8788 51.4767C46.6408 51.1546 46.1867 51.0866 45.8646 51.3246C45.5425 51.5626 45.4745 52.0167 45.7125 52.3388L55.5921 65.7055C55.5945 65.7088 55.5975 65.7118 55.6001 65.7151C55.6114 65.7298 55.6234 65.7439 55.6359 65.7579C55.6426 65.7653 55.649 65.7728 55.6558 65.7799C55.6582 65.7823 55.6601 65.7849 55.6625 65.7872C55.6729 65.7976 55.6839 65.8068 55.6949 65.8165C55.7018 65.8227 55.7085 65.8294 55.7157 65.8353C55.736 65.8519 55.7569 65.8673 55.7783 65.8813C55.7843 65.8852 55.7905 65.8885 55.7965 65.8921C55.8131 65.9023 55.83 65.9122 55.8473 65.921C55.8552 65.9249 55.8632 65.9284 55.8712 65.9321C55.8873 65.9396 55.9036 65.9466 55.9201 65.9528C55.9285 65.956 55.937 65.9588 55.9455 65.9617C55.9622 65.9672 55.9791 65.9721 55.9959 65.9764C56.0045 65.9786 56.0129 65.9808 56.0215 65.9827C56.0394 65.9865 56.0575 65.9895 56.0756 65.9921C56.0833 65.9932 56.0909 65.9946 56.0986 65.9953C56.1236 65.9981 56.1488 65.9996 56.1739 65.9997C56.1746 65.9997 56.1753 65.9998 56.176 65.9998C56.1769 65.9998 56.1777 65.9996 56.1785 65.9996C56.2107 65.9995 56.2429 65.9965 56.2748 65.9921C56.2825 65.991 56.29 65.9901 56.2977 65.9888C56.3295 65.9834 56.3611 65.976 56.3921 65.9663C56.3981 65.9644 56.4041 65.9621 56.41 65.96C56.4404 65.9496 56.4703 65.9374 56.4994 65.923C56.5021 65.9216 56.5047 65.9205 56.5075 65.9192C56.5387 65.9032 56.5687 65.8842 56.5977 65.8633C56.6005 65.8612 56.6036 65.8599 56.6065 65.8578C56.6107 65.8547 56.6143 65.8513 56.6183 65.8482C56.6286 65.8403 56.6386 65.8319 56.6484 65.8234C56.6581 65.8152 56.6675 65.8067 56.6766 65.798C56.6804 65.7943 56.6845 65.7912 56.6883 65.7874L58.739 63.7367C58.743 63.7326 58.7466 63.7281 58.7506 63.724C58.7597 63.7144 58.7684 63.7047 58.7769 63.6947C58.7845 63.6854 58.792 63.6762 58.7993 63.6669C58.8059 63.6582 58.8123 63.6495 58.8185 63.6406C58.8264 63.6295 58.8338 63.6183 58.8411 63.6069C58.8459 63.5989 58.8506 63.5909 58.8552 63.5829C58.8624 63.5703 58.8693 63.5577 58.8756 63.5449C58.8795 63.5368 58.8833 63.5287 58.8869 63.5204C58.8926 63.5076 58.8983 63.4947 58.9032 63.4815C58.9068 63.4722 58.9099 63.4628 58.9131 63.4534C58.9172 63.4412 58.9211 63.429 58.9245 63.4167C58.9276 63.4055 58.9301 63.3942 58.9328 63.383C58.9352 63.372 58.9376 63.3612 58.9395 63.3501C58.9418 63.3373 58.9434 63.3247 58.945 63.3118C58.9463 63.3017 58.9474 63.2916 58.9482 63.2815C58.9493 63.2682 58.9498 63.2549 58.9501 63.2416C58.9504 63.2312 58.9506 63.2209 58.9504 63.2105C58.9501 63.198 58.9494 63.1855 58.9485 63.1729Z" fill="white"/>
</svg>
