<svg width="85" height="85" viewBox="0 0 85 85" fill="none" xmlns="http://www.w3.org/2000/svg">
<circle cx="42.5" cy="42.5" r="42" stroke="white"/>
<path d="M63.6746 56.3349H59.3157C59.1437 56.3349 58.9787 56.2666 58.857 56.1449C58.7354 56.0233 58.667 55.8583 58.667 55.6863C58.667 55.5142 58.7354 55.3493 58.857 55.2276C58.9787 55.106 59.1437 55.0376 59.3157 55.0376H63.6746C63.7898 55.0375 63.9003 54.9916 63.9817 54.9101C64.0632 54.8287 64.109 54.7182 64.1092 54.603V52.5533C64.1077 51.1483 63.5488 49.8012 62.5553 48.8077C61.5618 47.8142 60.2148 47.2554 58.8098 47.2538H21.2984V53.8506C21.2987 54.1653 21.4239 54.467 21.6464 54.6896C21.869 54.9121 22.1707 55.0373 22.4854 55.0376H25.2422C25.4142 55.0376 25.5792 55.106 25.7008 55.2276C25.8225 55.3493 25.8908 55.5142 25.8908 55.6863C25.8908 55.8583 25.8225 56.0233 25.7008 56.1449C25.5792 56.2666 25.4142 56.3349 25.2422 56.3349H22.4854C21.8268 56.3342 21.1953 56.0723 20.7295 55.6065C20.2637 55.1408 20.0018 54.5093 20.0011 53.8506V46.6052C20.0011 46.4332 20.0694 46.2682 20.1911 46.1465C20.3127 46.0249 20.4777 45.9565 20.6497 45.9565H58.8098C60.5587 45.9584 62.2356 46.6541 63.4723 47.8908C64.709 49.1275 65.4046 50.8043 65.4065 52.5533V54.603C65.406 55.0622 65.2234 55.5024 64.8987 55.8271C64.574 56.1518 64.1338 56.3344 63.6746 56.3349Z" fill="white"/>
<path d="M51.3503 56.3349H33.4022C33.2302 56.3349 33.0652 56.2666 32.9435 56.1449C32.8219 56.0233 32.7535 55.8583 32.7535 55.6862C32.7535 55.5142 32.8219 55.3492 32.9435 55.2276C33.0652 55.1059 33.2302 55.0376 33.4022 55.0376H51.3503C51.5223 55.0376 51.6873 55.1059 51.8089 55.2276C51.9306 55.3492 51.9989 55.5142 51.9989 55.6862C51.9989 55.8583 51.9306 56.0233 51.8089 56.1449C51.6873 56.2666 51.5223 56.3349 51.3503 56.3349Z" fill="white"/>
<path d="M20.6498 47.2569C20.6022 47.2569 20.5548 47.2516 20.5084 47.2414C20.4252 47.2229 20.3464 47.1883 20.2766 47.1394C20.2068 47.0906 20.1474 47.0284 20.1016 46.9566C20.0558 46.8847 20.0246 46.8045 20.0098 46.7206C19.9951 46.6367 19.9969 46.5507 20.0154 46.4675C20.844 43.2414 22.7611 40.4002 25.4427 38.4243C26.297 37.8355 27.311 37.522 28.3486 37.5259H44.7296C45.6118 37.5269 46.4844 37.7101 47.2926 38.0639C48.1008 38.4177 48.8272 38.9346 49.4264 39.5821L55.5043 46.1672C55.566 46.229 55.6147 46.3026 55.6473 46.3836C55.6799 46.4646 55.6958 46.5514 55.6941 46.6387C55.6923 46.726 55.673 46.8121 55.6372 46.8918C55.6014 46.9714 55.5498 47.043 55.4857 47.1023C55.4215 47.1616 55.3461 47.2073 55.2638 47.2366C55.1816 47.266 55.0942 47.2785 55.007 47.2733C54.9199 47.2681 54.8346 47.2454 54.7564 47.2065C54.6783 47.1675 54.6087 47.1132 54.5521 47.0468L48.4768 40.4636C47.999 39.9475 47.4198 39.5355 46.7755 39.2535C46.1311 38.9715 45.4355 38.8254 44.7322 38.8245H28.3492C27.5746 38.8217 26.8177 39.056 26.1802 39.4959C22.3434 42.1443 21.2932 46.703 21.2835 46.749C21.2515 46.8932 21.1712 47.0221 21.056 47.1144C20.9407 47.2068 20.7975 47.2571 20.6498 47.2569Z" fill="white"/>
<path d="M40.758 47.2569C40.6032 47.2567 40.4536 47.2012 40.3362 47.1003C40.2187 46.9994 40.1413 46.8599 40.1177 46.7069L38.8205 38.2744C38.8042 38.1888 38.8054 38.1007 38.8239 38.0155C38.8425 37.9303 38.878 37.8497 38.9284 37.7786C38.9788 37.7074 39.043 37.6472 39.1173 37.6014C39.1915 37.5557 39.2742 37.5253 39.3604 37.5122C39.4466 37.4991 39.5345 37.5036 39.619 37.5252C39.7034 37.5469 39.7827 37.5854 39.8519 37.6384C39.9212 37.6914 39.979 37.7578 40.022 37.8336C40.065 37.9095 40.0923 37.9932 40.1022 38.0798L41.3995 46.5123C41.4133 46.6046 41.407 46.6987 41.3811 46.7884C41.3552 46.878 41.3103 46.961 41.2494 47.0317C41.1885 47.1023 41.1131 47.1591 41.0283 47.1979C40.9435 47.2368 40.8513 47.2569 40.758 47.2569Z" fill="white"/>
<path d="M28.4337 47.2572C28.369 47.2573 28.3046 47.2475 28.243 47.228C28.0786 47.1774 27.9411 47.0637 27.8606 46.9118C27.78 46.7599 27.7631 46.5822 27.8135 46.4178L30.4081 37.9854C30.4332 37.904 30.474 37.8283 30.5283 37.7626C30.5826 37.697 30.6493 37.6427 30.7246 37.6028C30.7999 37.5629 30.8823 37.5383 30.9671 37.5302C31.0519 37.5222 31.1375 37.531 31.219 37.556C31.3004 37.581 31.3761 37.6219 31.4417 37.6762C31.5074 37.7305 31.5617 37.7972 31.6016 37.8725C31.6415 37.9478 31.6661 38.0302 31.6741 38.115C31.6822 38.1998 31.6734 38.2854 31.6484 38.3668L29.0538 46.7992C29.013 46.9319 28.9307 47.0479 28.8191 47.1303C28.7075 47.2128 28.5724 47.2572 28.4337 47.2572Z" fill="white"/>
<path d="M55.3389 60.512C54.422 60.5121 53.5257 60.2404 52.7632 59.731C52.0007 59.2217 51.4064 58.4977 51.0555 57.6507C50.7045 56.8036 50.6126 55.8714 50.7914 54.9721C50.9702 54.0728 51.4117 53.2467 52.06 52.5983C52.7083 51.9499 53.5343 51.5083 54.4336 51.3294C55.3329 51.1504 56.2651 51.2422 57.1122 51.5931C57.9594 51.9439 58.6834 52.5381 59.1929 53.3005C59.7023 54.0629 59.9742 54.9592 59.9742 55.8761C59.9728 57.1051 59.484 58.2834 58.6151 59.1525C57.7461 60.0215 56.5679 60.5105 55.3389 60.512ZM55.3389 52.5382C54.6786 52.5381 54.033 52.7338 53.4839 53.1006C52.9347 53.4674 52.5067 53.9888 52.254 54.5989C52.0012 55.2089 51.935 55.8803 52.0638 56.5279C52.1926 57.1756 52.5106 57.7706 52.9775 58.2375C53.4445 58.7045 54.0394 59.0225 54.6871 59.1513C55.3348 59.2801 56.0061 59.2139 56.6162 58.9611C57.2263 58.7083 57.7477 58.2803 58.1145 57.7312C58.4813 57.1821 58.677 56.5365 58.6769 55.8761C58.6762 54.9909 58.3244 54.1422 57.6986 53.5161C57.0727 52.8901 56.2241 52.5379 55.3389 52.5369V52.5382Z" fill="white"/>
<path d="M55.3389 58.0545C54.9078 58.0546 54.4864 57.9269 54.1279 57.6875C53.7694 57.4481 53.49 57.1077 53.3249 56.7095C53.1598 56.3113 53.1166 55.873 53.2006 55.4502C53.2846 55.0274 53.4922 54.639 53.7969 54.3341C54.1017 54.0293 54.4901 53.8216 54.9128 53.7375C55.3356 53.6533 55.7739 53.6965 56.1722 53.8614C56.5705 54.0263 56.9109 54.3057 57.1504 54.6641C57.3899 55.0225 57.5177 55.4439 57.5177 55.875C57.5172 56.4528 57.2875 57.0067 56.879 57.4153C56.4706 57.8239 55.9167 58.0538 55.3389 58.0545ZM55.3389 54.9935C55.1644 54.9934 54.9937 55.045 54.8486 55.1419C54.7034 55.2388 54.5902 55.3766 54.5234 55.5378C54.4565 55.699 54.439 55.8764 54.473 56.0476C54.5071 56.2188 54.5911 56.376 54.7145 56.4995C54.8379 56.6229 54.9952 56.7069 55.1663 56.7409C55.3375 56.7749 55.5149 56.7574 55.6762 56.6906C55.8374 56.6237 55.9752 56.5105 56.072 56.3654C56.1689 56.2202 56.2206 56.0495 56.2204 55.875C56.2201 55.6413 56.1271 55.4173 55.9619 55.2521C55.7966 55.0868 55.5726 54.9938 55.3389 54.9935Z" fill="white"/>
<path d="M29.3229 58.0545C28.8918 58.0545 28.4705 57.9267 28.1121 57.6872C27.7536 57.4477 27.4743 57.1073 27.3093 56.7091C27.1444 56.3108 27.1012 55.8726 27.1853 55.4498C27.2694 55.0271 27.477 54.6387 27.7818 54.3339C28.0866 54.0291 28.4749 53.8215 28.8977 53.7374C29.3205 53.6533 29.7587 53.6965 30.1569 53.8615C30.5552 54.0264 30.8956 54.3058 31.135 54.6642C31.3745 55.0226 31.5024 55.444 31.5024 55.875C31.5018 56.4529 31.2721 57.0069 30.8634 57.4156C30.4548 57.8242 29.9008 58.054 29.3229 58.0545ZM29.3229 54.9935C29.1484 54.9935 28.9778 55.0453 28.8327 55.1422C28.6876 55.2392 28.5746 55.377 28.5078 55.5382C28.4411 55.6995 28.4236 55.8769 28.4577 56.048C28.4918 56.2191 28.5759 56.3763 28.6993 56.4997C28.8228 56.623 28.98 56.707 29.1512 56.741C29.3224 56.7749 29.4997 56.7574 29.6609 56.6905C29.8221 56.6236 29.9598 56.5105 30.0567 56.3653C30.1536 56.2201 30.2052 56.0495 30.2051 55.875C30.2049 55.6412 30.1119 55.417 29.9464 55.2517C29.781 55.0864 29.5567 54.9935 29.3229 54.9935Z" fill="white"/>
<path d="M29.3229 60.6082C28.3864 60.6082 27.4709 60.3305 26.6922 59.8102C25.9135 59.2899 25.3066 58.5504 24.9482 57.6851C24.5898 56.8199 24.496 55.8678 24.6788 54.9493C24.8615 54.0308 25.3124 53.1871 25.9747 52.5248C26.6369 51.8626 27.4806 51.4116 28.3991 51.2289C29.3177 51.0462 30.2697 51.14 31.135 51.4984C32.0002 51.8568 32.7397 52.4637 33.26 53.2424C33.7803 54.0211 34.058 54.9366 34.058 55.8731C34.0572 57.1287 33.558 58.3326 32.6702 59.2204C31.7824 60.1082 30.5785 60.6074 29.3229 60.6082ZM29.3229 52.4391C28.643 52.4391 27.9783 52.6408 27.4129 53.0185C26.8476 53.3963 26.407 53.9332 26.1468 54.5614C25.8866 55.1896 25.8185 55.8808 25.9511 56.5477C26.0838 57.2145 26.4112 57.8271 26.892 58.3079C27.3728 58.7887 27.9853 59.1161 28.6522 59.2488C29.3191 59.3814 30.0103 59.3133 30.6385 59.0531C31.2667 58.7929 31.8036 58.3523 32.1814 57.7869C32.5591 57.2216 32.7607 56.5569 32.7607 55.877C32.7607 55.4255 32.6718 54.9785 32.4991 54.5614C32.3263 54.1443 32.0731 53.7653 31.7538 53.4461C31.4346 53.1268 31.0556 52.8736 30.6385 52.7008C30.2214 52.5281 29.7744 52.4391 29.3229 52.4391Z" fill="white"/>
<path d="M45.947 50.5004H44.6497C44.4777 50.5004 44.3127 50.4321 44.1911 50.3104C44.0694 50.1888 44.0011 50.0238 44.0011 49.8518C44.0011 49.6797 44.0694 49.5148 44.1911 49.3931C44.3127 49.2715 44.4777 49.2031 44.6497 49.2031H45.947C46.1191 49.2031 46.2841 49.2715 46.4057 49.3931C46.5274 49.5148 46.5957 49.6797 46.5957 49.8518C46.5957 50.0238 46.5274 50.1888 46.4057 50.3104C46.2841 50.4321 46.1191 50.5004 45.947 50.5004Z" fill="white"/>
<path d="M38.4876 50.5004H37.1903C37.0182 50.5004 36.8533 50.4321 36.7316 50.3104C36.61 50.1888 36.5416 50.0238 36.5416 49.8518C36.5416 49.6797 36.61 49.5148 36.7316 49.3931C36.8533 49.2715 37.0182 49.2031 37.1903 49.2031H38.4876C38.6596 49.2031 38.8246 49.2715 38.9462 49.3931C39.0679 49.5148 39.1362 49.6797 39.1362 49.8518C39.1362 50.0238 39.0679 50.1888 38.9462 50.3104C38.8246 50.4321 38.6596 50.5004 38.4876 50.5004Z" fill="white"/>
<path d="M40.542 38.8245H32.515C32.3429 38.8245 32.178 38.7562 32.0563 38.6345C31.9347 38.5129 31.8663 38.3479 31.8663 38.1759V35.5813C31.8663 35.4092 31.9347 35.2442 32.0563 35.1226C32.178 35.001 32.3429 34.9326 32.515 34.9326H40.542C40.714 34.9326 40.879 35.001 41.0007 35.1226C41.1223 35.2442 41.1907 35.4092 41.1907 35.5813V38.1759C41.1907 38.3479 41.1223 38.5129 41.0007 38.6345C40.879 38.7562 40.714 38.8245 40.542 38.8245ZM33.1636 37.5272H39.8934V36.2299H33.1636V37.5272Z" fill="white"/>
<path d="M46.3655 36.2299H26.6914C26.5193 36.2299 26.3544 36.1616 26.2327 36.0399C26.1111 35.9183 26.0427 35.7533 26.0427 35.5813C26.0427 35.4092 26.1111 35.2442 26.2327 35.1226C26.3544 35.001 26.5193 34.9326 26.6914 34.9326H46.3655C46.5376 34.9326 46.7026 35.001 46.8242 35.1226C46.9458 35.2442 47.0142 35.4092 47.0142 35.5813C47.0142 35.7533 46.9458 35.9183 46.8242 36.0399C46.7026 36.1616 46.5376 36.2299 46.3655 36.2299Z" fill="white"/>
<path d="M44.7796 36.2275H33.0247C32.8527 36.2275 32.6877 36.1591 32.5661 36.0375C32.4444 35.9158 32.3761 35.7508 32.3761 35.5788C32.3761 35.4068 32.4444 35.2418 32.5661 35.1202C32.6877 34.9985 32.8527 34.9302 33.0247 34.9302H44.1309V26.6787C44.1309 26.5775 44.0907 26.4805 44.0192 26.409C43.9477 26.3375 43.8507 26.2973 43.7495 26.2973H34.0548C33.9537 26.2975 33.8568 26.3377 33.7853 26.4092C33.7138 26.4807 33.6736 26.5776 33.6734 26.6787V29.0528C33.6734 29.2248 33.6051 29.3898 33.4834 29.5114C33.3618 29.6331 33.1968 29.7014 33.0247 29.7014C32.8527 29.7014 32.6877 29.6331 32.5661 29.5114C32.4444 29.3898 32.3761 29.2248 32.3761 29.0528V26.6787C32.3766 26.2336 32.5536 25.807 32.8683 25.4922C33.1831 25.1775 33.6097 25.0005 34.0548 25H43.7476C44.193 25 44.6201 25.1768 44.9353 25.4916C45.2504 25.8063 45.4277 26.2333 45.4282 26.6787V35.5788C45.4282 35.7508 45.3599 35.9158 45.2382 36.0375C45.1166 36.1591 44.9516 36.2275 44.7796 36.2275Z" fill="white"/>
<path d="M38.9014 36.2299H28.6884C28.5164 36.2299 28.3514 36.1616 28.2298 36.0399C28.1081 35.9183 28.0398 35.7533 28.0398 35.5813V30.0814C28.0403 29.6361 28.2174 29.2092 28.5322 28.8942C28.847 28.5793 29.2739 28.4021 29.7191 28.4014H37.8701C38.3155 28.4019 38.7425 28.579 39.0574 28.894C39.3724 29.2089 39.5496 29.636 39.5501 30.0814V35.5813C39.5501 35.7533 39.4817 35.9183 39.3601 36.0399C39.2384 36.1616 39.0734 36.2299 38.9014 36.2299ZM29.3371 34.9326H38.2528V30.0814C38.2526 29.9799 38.2122 29.8827 38.1405 29.8109C38.0688 29.7392 37.9715 29.6988 37.8701 29.6987H29.7191C29.6178 29.6988 29.5206 29.7392 29.449 29.811C29.3773 29.8827 29.3371 29.98 29.3371 30.0814V34.9326Z" fill="white"/>
</svg>
