<svg width="285" height="62" viewBox="0 0 285 62" fill="none" xmlns="http://www.w3.org/2000/svg">
<path d="M85.8 20.0627H86.62C86.6733 20.276 86.72 20.536 86.76 20.8427C86.8133 21.136 86.8533 21.456 86.88 21.8027C86.92 22.136 86.9467 22.4694 86.96 22.8027C86.9733 23.136 86.98 23.436 86.98 23.7027C86.5133 23.996 85.9267 24.2027 85.22 24.3227C84.5267 24.4427 83.8133 24.5027 83.08 24.5027C81.9733 24.5027 80.9667 24.3694 80.06 24.1027C79.1667 23.8227 78.4 23.3894 77.76 22.8027C77.1333 22.2027 76.6467 21.4494 76.3 20.5427C75.9533 19.6227 75.78 18.5227 75.78 17.2427C75.78 15.976 75.9667 14.8894 76.34 13.9827C76.7267 13.0627 77.24 12.3094 77.88 11.7227C78.52 11.136 79.26 10.7094 80.1 10.4427C80.9533 10.1627 81.8467 10.0227 82.78 10.0227C83.66 10.0227 84.4533 10.0894 85.16 10.2227C85.88 10.3427 86.4667 10.5094 86.92 10.7227C86.92 10.936 86.9067 11.2094 86.88 11.5427C86.8667 11.876 86.8333 12.2294 86.78 12.6027C86.74 12.9627 86.6867 13.3227 86.62 13.6827C86.5667 14.0294 86.5133 14.3227 86.46 14.5627H85.62L84.52 11.5427C84.4 11.476 84.2067 11.4227 83.94 11.3827C83.6733 11.3427 83.4 11.3227 83.12 11.3227C82.5733 11.3227 82.06 11.436 81.58 11.6627C81.1 11.876 80.6733 12.2227 80.3 12.7027C79.9267 13.1827 79.6333 13.8027 79.42 14.5627C79.2067 15.3094 79.1 16.2094 79.1 17.2627C79.1 19.1694 79.48 20.636 80.24 21.6627C81 22.6894 82.0333 23.2027 83.34 23.2027C83.7133 23.2027 84.0267 23.176 84.28 23.1227C84.5467 23.056 84.7267 22.9694 84.82 22.8627L85.8 20.0627ZM97.4469 21.3627C97.4469 21.656 97.4469 21.9094 97.4469 22.1227C97.4602 22.336 97.4802 22.5627 97.5069 22.8027L98.8869 23.0027V23.7027C98.7269 23.7827 98.5069 23.8627 98.2269 23.9427C97.9602 24.0227 97.6735 24.1027 97.3669 24.1827C97.0735 24.2494 96.7802 24.3027 96.4869 24.3427C96.1935 24.396 95.9335 24.436 95.7069 24.4627H95.0269C94.8935 24.156 94.8135 23.8494 94.7869 23.5427C94.7602 23.236 94.7402 22.8627 94.7269 22.4227H94.6269C94.5602 22.6894 94.4469 22.9494 94.2869 23.2027C94.1269 23.4427 93.9202 23.6627 93.6669 23.8627C93.4269 24.0494 93.1402 24.2027 92.8069 24.3227C92.4735 24.4427 92.1002 24.5027 91.6869 24.5027C91.2469 24.5027 90.8402 24.436 90.4669 24.3027C90.0935 24.1694 89.7669 23.9827 89.4869 23.7427C89.2069 23.5027 88.9869 23.216 88.8269 22.8827C88.6669 22.536 88.5869 22.1494 88.5869 21.7227C88.5869 21.1227 88.7002 20.6294 88.9269 20.2427C89.1535 19.856 89.5069 19.5427 89.9869 19.3027C90.4802 19.0494 91.1069 18.8627 91.8669 18.7427C92.6402 18.6227 93.5735 18.536 94.6669 18.4827C94.7735 17.336 94.7269 16.496 94.5269 15.9627C94.3269 15.4294 93.8935 15.1627 93.2269 15.1627C92.8135 15.1627 92.4335 15.2294 92.0869 15.3627L91.1469 17.7627H90.2669C90.1602 17.6027 90.0535 17.4227 89.9469 17.2227C89.8535 17.0094 89.7602 16.7894 89.6669 16.5627C89.5869 16.3227 89.5135 16.0827 89.4469 15.8427C89.3935 15.6027 89.3535 15.3694 89.3269 15.1427C89.8335 14.796 90.4869 14.5227 91.2869 14.3227C92.0869 14.1227 92.9335 14.0227 93.8269 14.0227C94.5869 14.0227 95.2069 14.1094 95.6869 14.2827C96.1669 14.4427 96.5402 14.6694 96.8069 14.9627C97.0869 15.2427 97.2802 15.576 97.3869 15.9627C97.4935 16.3494 97.5469 16.7627 97.5469 17.2027C97.5469 18.0027 97.5269 18.7294 97.4869 19.3827C97.4602 20.0227 97.4469 20.6827 97.4469 21.3627ZM92.9469 22.9027C93.2269 22.9027 93.4669 22.8494 93.6669 22.7427C93.8669 22.636 94.0335 22.5094 94.1669 22.3627C94.3135 22.216 94.4202 22.056 94.4869 21.8827C94.5669 21.7094 94.6269 21.556 94.6669 21.4227V19.4227C94.0402 19.436 93.5269 19.476 93.1269 19.5427C92.7269 19.6094 92.4135 19.7227 92.1869 19.8827C91.9602 20.0294 91.8002 20.2227 91.7069 20.4627C91.6269 20.6894 91.5869 20.9694 91.5869 21.3027C91.5869 21.8094 91.7069 22.2027 91.9469 22.4827C92.1869 22.7627 92.5202 22.9027 92.9469 22.9027ZM109.8 28.2627H104.36V27.4827C104.733 27.2694 105.173 27.1094 105.68 27.0027V23.8427C105.52 24.0427 105.273 24.2027 104.94 24.3227C104.606 24.4427 104.273 24.5027 103.94 24.5027C103.326 24.5027 102.76 24.4094 102.24 24.2227C101.733 24.0227 101.293 23.7227 100.92 23.3227C100.546 22.9227 100.253 22.416 100.04 21.8027C99.8397 21.1894 99.7397 20.4627 99.7397 19.6227C99.7397 18.6627 99.8464 17.836 100.06 17.1427C100.273 16.436 100.573 15.856 100.96 15.4027C101.346 14.936 101.806 14.5894 102.34 14.3627C102.886 14.136 103.493 14.0227 104.16 14.0227C104.493 14.0227 104.8 14.076 105.08 14.1827C105.36 14.276 105.56 14.4027 105.68 14.5627V10.8827L104.16 10.7227V9.94269C104.346 9.86269 104.6 9.78269 104.92 9.70269C105.24 9.62269 105.573 9.54936 105.92 9.48269C106.28 9.41603 106.626 9.36269 106.96 9.32269C107.293 9.26936 107.573 9.23603 107.8 9.22269H108.48V14.6827C108.666 14.4827 108.926 14.3227 109.26 14.2027C109.606 14.0827 109.966 14.0227 110.34 14.0227C110.94 14.0227 111.486 14.116 111.98 14.3027C112.486 14.4894 112.92 14.776 113.28 15.1627C113.64 15.5494 113.92 16.036 114.12 16.6227C114.32 17.196 114.42 17.876 114.42 18.6627C114.42 19.676 114.306 20.5494 114.08 21.2827C113.866 22.016 113.566 22.6227 113.18 23.1027C112.793 23.5827 112.333 23.936 111.8 24.1627C111.266 24.3894 110.693 24.5027 110.08 24.5027C109.786 24.5027 109.486 24.456 109.18 24.3627C108.873 24.2827 108.64 24.156 108.48 23.9827V27.0027C108.973 27.0827 109.413 27.2427 109.8 27.4827V28.2627ZM104.64 23.2427C104.866 23.2427 105.066 23.216 105.24 23.1627C105.413 23.096 105.593 22.9694 105.78 22.7827V15.6227C105.62 15.516 105.453 15.436 105.28 15.3827C105.106 15.316 104.886 15.2827 104.62 15.2827C104.353 15.2827 104.106 15.3427 103.88 15.4627C103.653 15.5827 103.453 15.7827 103.28 16.0627C103.106 16.3294 102.973 16.6894 102.88 17.1427C102.786 17.596 102.74 18.1627 102.74 18.8427C102.74 19.7494 102.786 20.4894 102.88 21.0627C102.973 21.6227 103.1 22.0694 103.26 22.4027C103.433 22.7227 103.633 22.9427 103.86 23.0627C104.1 23.1827 104.36 23.2427 104.64 23.2427ZM109.5 15.2827C109.273 15.2827 109.073 15.316 108.9 15.3827C108.74 15.436 108.566 15.5427 108.38 15.7027V22.8827C108.54 23.016 108.706 23.1094 108.88 23.1627C109.053 23.216 109.273 23.2427 109.54 23.2427C109.78 23.2427 110.013 23.1827 110.24 23.0627C110.466 22.9427 110.666 22.736 110.84 22.4427C111.013 22.136 111.153 21.736 111.26 21.2427C111.366 20.7494 111.42 20.1227 111.42 19.3627C111.42 18.5494 111.373 17.876 111.28 17.3427C111.2 16.8094 111.08 16.396 110.92 16.1027C110.76 15.796 110.56 15.5827 110.32 15.4627C110.08 15.3427 109.806 15.2827 109.5 15.2827ZM124.4 21.3627C124.4 21.656 124.4 21.9094 124.4 22.1227C124.413 22.336 124.433 22.5627 124.46 22.8027L125.84 23.0027V23.7027C125.68 23.7827 125.46 23.8627 125.18 23.9427C124.913 24.0227 124.627 24.1027 124.32 24.1827C124.027 24.2494 123.733 24.3027 123.44 24.3427C123.147 24.396 122.887 24.436 122.66 24.4627H121.98C121.847 24.156 121.767 23.8494 121.74 23.5427C121.713 23.236 121.693 22.8627 121.68 22.4227H121.58C121.513 22.6894 121.4 22.9494 121.24 23.2027C121.08 23.4427 120.873 23.6627 120.62 23.8627C120.38 24.0494 120.093 24.2027 119.76 24.3227C119.427 24.4427 119.053 24.5027 118.64 24.5027C118.2 24.5027 117.793 24.436 117.42 24.3027C117.047 24.1694 116.72 23.9827 116.44 23.7427C116.16 23.5027 115.94 23.216 115.78 22.8827C115.62 22.536 115.54 22.1494 115.54 21.7227C115.54 21.1227 115.653 20.6294 115.88 20.2427C116.107 19.856 116.46 19.5427 116.94 19.3027C117.433 19.0494 118.06 18.8627 118.82 18.7427C119.593 18.6227 120.527 18.536 121.62 18.4827C121.727 17.336 121.68 16.496 121.48 15.9627C121.28 15.4294 120.847 15.1627 120.18 15.1627C119.767 15.1627 119.387 15.2294 119.04 15.3627L118.1 17.7627H117.22C117.113 17.6027 117.007 17.4227 116.9 17.2227C116.807 17.0094 116.713 16.7894 116.62 16.5627C116.54 16.3227 116.467 16.0827 116.4 15.8427C116.347 15.6027 116.307 15.3694 116.28 15.1427C116.787 14.796 117.44 14.5227 118.24 14.3227C119.04 14.1227 119.887 14.0227 120.78 14.0227C121.54 14.0227 122.16 14.1094 122.64 14.2827C123.12 14.4427 123.493 14.6694 123.76 14.9627C124.04 15.2427 124.233 15.576 124.34 15.9627C124.447 16.3494 124.5 16.7627 124.5 17.2027C124.5 18.0027 124.48 18.7294 124.44 19.3827C124.413 20.0227 124.4 20.6827 124.4 21.3627ZM119.9 22.9027C120.18 22.9027 120.42 22.8494 120.62 22.7427C120.82 22.636 120.987 22.5094 121.12 22.3627C121.267 22.216 121.373 22.056 121.44 21.8827C121.52 21.7094 121.58 21.556 121.62 21.4227V19.4227C120.993 19.436 120.48 19.476 120.08 19.5427C119.68 19.6094 119.367 19.7227 119.14 19.8827C118.913 20.0294 118.753 20.2227 118.66 20.4627C118.58 20.6894 118.54 20.9694 118.54 21.3027C118.54 21.8094 118.66 22.2027 118.9 22.4827C119.14 22.7627 119.473 22.9027 119.9 22.9027ZM132.073 28.2627H126.553V27.4827C127.006 27.2694 127.446 27.1094 127.873 27.0027V15.6827L126.553 15.5227V14.7427C126.766 14.6494 127.026 14.5627 127.333 14.4827C127.653 14.4027 127.979 14.336 128.313 14.2827C128.646 14.216 128.966 14.1627 129.273 14.1227C129.593 14.0827 129.859 14.0494 130.073 14.0227H130.753V16.2627H130.773C130.999 15.6227 131.353 15.0894 131.833 14.6627C132.326 14.236 133.006 14.0227 133.873 14.0227C134.459 14.0227 134.986 14.1227 135.453 14.3227C135.933 14.5094 136.333 14.8094 136.653 15.2227C136.986 15.6227 137.239 16.1427 137.413 16.7827C137.599 17.4094 137.693 18.1627 137.693 19.0427C137.693 19.8827 137.573 20.6427 137.333 21.3227C137.106 22.0027 136.773 22.576 136.333 23.0427C135.906 23.5094 135.379 23.8694 134.753 24.1227C134.139 24.376 133.439 24.5027 132.653 24.5027C132.199 24.5027 131.839 24.4694 131.573 24.4027C131.319 24.3494 131.046 24.2494 130.753 24.1027V27.0027C130.966 27.0294 131.179 27.076 131.393 27.1427C131.606 27.2227 131.833 27.336 132.073 27.4827V28.2627ZM132.713 15.6227C132.259 15.6227 131.853 15.7827 131.493 16.1027C131.146 16.4227 130.899 16.916 130.753 17.5827V22.9027C130.966 23.0627 131.193 23.1827 131.433 23.2627C131.673 23.3294 131.986 23.3627 132.373 23.3627C133.133 23.3627 133.693 22.996 134.053 22.2627C134.413 21.5294 134.593 20.456 134.593 19.0427C134.593 17.9494 134.453 17.1094 134.173 16.5227C133.906 15.9227 133.419 15.6227 132.713 15.6227ZM138.9 14.2627H144.22V15.0427C144.074 15.1227 143.9 15.2027 143.7 15.2827C143.514 15.3627 143.287 15.4427 143.02 15.5227V20.0227L142.8 21.8827H142.9L143.68 20.3827L147.34 14.2627H151.12V15.0427C150.694 15.2827 150.254 15.4427 149.8 15.5227V23.0027C150.054 23.0694 150.294 23.1427 150.52 23.2227C150.747 23.2894 150.947 23.376 151.12 23.4827V24.2627H145.8V23.4827C146.174 23.2694 146.574 23.1094 147 23.0027V18.2827L147.2 16.7027H147.1L146.34 18.2027L142.72 24.2627H138.9V23.4827C139.127 23.376 139.347 23.2894 139.56 23.2227C139.774 23.1427 139.994 23.0694 140.22 23.0027V15.5227C139.7 15.4427 139.26 15.2827 138.9 15.0427V14.2627ZM167.19 24.2627H160.31V23.5027C160.577 23.396 160.877 23.2894 161.21 23.1827C161.557 23.0627 161.903 22.976 162.25 22.9227V11.5627H159.93L158.65 14.9827H157.83C157.777 14.716 157.723 14.376 157.67 13.9627C157.617 13.5494 157.57 13.1227 157.53 12.6827C157.49 12.2427 157.457 11.8094 157.43 11.3827C157.403 10.9427 157.39 10.5694 157.39 10.2627H170.13C170.13 10.5827 170.117 10.956 170.09 11.3827C170.063 11.8094 170.03 12.2427 169.99 12.6827C169.95 13.1227 169.903 13.5494 169.85 13.9627C169.797 14.3627 169.743 14.7027 169.69 14.9827H168.85L167.57 11.5627H165.25V22.9227C165.597 22.9894 165.937 23.0694 166.27 23.1627C166.617 23.256 166.923 23.3694 167.19 23.5027V24.2627ZM180.81 11.6027C180.49 11.536 180.21 11.456 179.97 11.3627C179.73 11.256 179.496 11.1427 179.27 11.0227V10.2627H184.11V11.0227C183.963 11.1294 183.763 11.236 183.51 11.3427C183.27 11.436 182.996 11.5227 182.69 11.6027L178.87 20.2427C178.23 21.7094 177.563 22.8027 176.87 23.5227C176.176 24.2294 175.436 24.5094 174.65 24.3627C174.543 24.256 174.43 24.096 174.31 23.8827C174.203 23.656 174.096 23.4227 173.99 23.1827C173.896 22.9294 173.816 22.6894 173.75 22.4627C173.683 22.2227 173.643 22.0227 173.63 21.8627L174.19 21.0627L176.57 21.8027C176.676 21.6827 176.776 21.536 176.87 21.3627C176.963 21.1894 177.05 20.996 177.13 20.7827L171.81 11.6027C171.556 11.536 171.31 11.456 171.07 11.3627C170.843 11.256 170.63 11.1427 170.43 11.0227V10.2627H176.67V11.0227C176.27 11.2627 175.763 11.456 175.15 11.6027L177.97 17.0227L178.39 18.3027H178.43L178.83 16.9827L180.81 11.6027ZM189.142 22.9227C189.502 22.976 189.855 23.056 190.202 23.1627C190.562 23.256 190.882 23.3694 191.162 23.5027V24.2627H184.502V23.5027C184.755 23.356 185.022 23.236 185.302 23.1427C185.595 23.0494 185.875 22.976 186.142 22.9227V11.6027C185.835 11.5494 185.542 11.476 185.262 11.3827C184.982 11.276 184.728 11.156 184.502 11.0227V10.2627H187.022C187.555 10.2627 188.162 10.236 188.842 10.1827C189.535 10.1294 190.168 10.1027 190.742 10.1027C191.448 10.1027 192.135 10.176 192.802 10.3227C193.482 10.456 194.082 10.6894 194.602 11.0227C195.135 11.356 195.562 11.8027 195.882 12.3627C196.202 12.9094 196.362 13.596 196.362 14.4227C196.362 15.2094 196.202 15.8894 195.882 16.4627C195.575 17.036 195.162 17.5094 194.642 17.8827C194.122 18.256 193.522 18.536 192.842 18.7227C192.162 18.896 191.462 18.9827 190.742 18.9827C190.675 18.9827 190.568 18.9827 190.422 18.9827C190.275 18.9827 190.115 18.9827 189.942 18.9827C189.782 18.9694 189.622 18.9627 189.462 18.9627C189.315 18.9494 189.208 18.936 189.142 18.9227V22.9227ZM190.222 11.4027C189.955 11.4027 189.742 11.416 189.582 11.4427C189.435 11.456 189.288 11.4827 189.142 11.5227V17.6027C189.262 17.6427 189.442 17.6694 189.682 17.6827C189.922 17.6827 190.115 17.6827 190.262 17.6827C190.622 17.6827 190.968 17.6227 191.302 17.5027C191.635 17.3827 191.928 17.196 192.182 16.9427C192.448 16.6894 192.662 16.3627 192.822 15.9627C192.982 15.5627 193.062 15.0827 193.062 14.5227C193.062 13.456 192.802 12.6694 192.282 12.1627C191.762 11.656 191.075 11.4027 190.222 11.4027ZM203.315 24.2627H197.295V23.5027C197.548 23.3694 197.815 23.2494 198.095 23.1427C198.375 23.036 198.655 22.9627 198.935 22.9227V11.6027C198.668 11.536 198.388 11.4627 198.095 11.3827C197.801 11.2894 197.535 11.1694 197.295 11.0227V10.2627H203.315V11.0227C203.115 11.1427 202.888 11.256 202.635 11.3627C202.381 11.4694 202.108 11.5494 201.815 11.6027V19.2027L201.615 20.7627L202.595 19.1227L207.635 12.0827V11.6027C207.008 11.456 206.481 11.2627 206.055 11.0227V10.2627H212.075V11.0227C211.848 11.1694 211.588 11.2894 211.295 11.3827C211.015 11.4627 210.728 11.536 210.435 11.6027V22.9227C210.741 22.976 211.028 23.056 211.295 23.1627C211.575 23.256 211.835 23.3694 212.075 23.5027V24.2627H206.055V23.5027C206.241 23.4094 206.461 23.3094 206.715 23.2027C206.981 23.0827 207.261 22.9894 207.555 22.9227V15.3427L207.755 13.7627L206.855 15.3427L201.735 22.4827V22.9227C202.041 22.9894 202.328 23.076 202.595 23.1827C202.861 23.2894 203.101 23.396 203.315 23.5027V24.2627ZM223.28 20.0627H224.1C224.154 20.276 224.2 20.536 224.24 20.8427C224.294 21.136 224.334 21.456 224.36 21.8027C224.4 22.136 224.427 22.4694 224.44 22.8027C224.454 23.136 224.46 23.436 224.46 23.7027C223.994 23.996 223.407 24.2027 222.7 24.3227C222.007 24.4427 221.294 24.5027 220.56 24.5027C219.454 24.5027 218.447 24.3694 217.54 24.1027C216.647 23.8227 215.88 23.3894 215.24 22.8027C214.614 22.2027 214.127 21.4494 213.78 20.5427C213.434 19.6227 213.26 18.5227 213.26 17.2427C213.26 15.976 213.447 14.8894 213.82 13.9827C214.207 13.0627 214.72 12.3094 215.36 11.7227C216 11.136 216.74 10.7094 217.58 10.4427C218.434 10.1627 219.327 10.0227 220.26 10.0227C221.14 10.0227 221.934 10.0894 222.64 10.2227C223.36 10.3427 223.947 10.5094 224.4 10.7227C224.4 10.936 224.387 11.2094 224.36 11.5427C224.347 11.876 224.314 12.2294 224.26 12.6027C224.22 12.9627 224.167 13.3227 224.1 13.6827C224.047 14.0294 223.994 14.3227 223.94 14.5627H223.1L222 11.5427C221.88 11.476 221.687 11.4227 221.42 11.3827C221.154 11.3427 220.88 11.3227 220.6 11.3227C220.054 11.3227 219.54 11.436 219.06 11.6627C218.58 11.876 218.154 12.2227 217.78 12.7027C217.407 13.1827 217.114 13.8027 216.9 14.5627C216.687 15.3094 216.58 16.2094 216.58 17.2627C216.58 19.1694 216.96 20.636 217.72 21.6627C218.48 22.6894 219.514 23.2027 220.82 23.2027C221.194 23.2027 221.507 23.176 221.76 23.1227C222.027 23.056 222.207 22.9694 222.3 22.8627L223.28 20.0627ZM235.08 24.2627H228.2V23.5027C228.467 23.396 228.767 23.2894 229.1 23.1827C229.447 23.0627 229.794 22.976 230.14 22.9227V11.5627H227.82L226.54 14.9827H225.72C225.667 14.716 225.614 14.376 225.56 13.9627C225.507 13.5494 225.46 13.1227 225.42 12.6827C225.38 12.2427 225.347 11.8094 225.32 11.3827C225.294 10.9427 225.28 10.5694 225.28 10.2627H238.02C238.02 10.5827 238.007 10.956 237.98 11.3827C237.954 11.8094 237.92 12.2427 237.88 12.6827C237.84 13.1227 237.794 13.5494 237.74 13.9627C237.687 14.3627 237.634 14.7027 237.58 14.9827H236.74L235.46 11.5627H233.14V22.9227C233.487 22.9894 233.827 23.0694 234.16 23.1627C234.507 23.256 234.814 23.3694 235.08 23.5027V24.2627ZM244.74 24.2627H238.72V23.5027C238.974 23.3694 239.24 23.2494 239.52 23.1427C239.8 23.036 240.08 22.9627 240.36 22.9227V11.6027C240.094 11.536 239.814 11.4627 239.52 11.3827C239.227 11.2894 238.96 11.1694 238.72 11.0227V10.2627H244.74V11.0227C244.54 11.1427 244.314 11.256 244.06 11.3627C243.807 11.4694 243.534 11.5494 243.24 11.6027V19.2027L243.04 20.7627L244.02 19.1227L249.06 12.0827V11.6027C248.434 11.456 247.907 11.2627 247.48 11.0227V10.2627H253.5V11.0227C253.274 11.1694 253.014 11.2894 252.72 11.3827C252.44 11.4627 252.154 11.536 251.86 11.6027V22.9227C252.167 22.976 252.454 23.056 252.72 23.1627C253 23.256 253.26 23.3694 253.5 23.5027V24.2627H247.48V23.5027C247.667 23.4094 247.887 23.3094 248.14 23.2027C248.407 23.0827 248.687 22.9894 248.98 22.9227V15.3427L249.18 13.7627L248.28 15.3427L243.16 22.4827V22.9227C243.467 22.9894 243.754 23.076 244.02 23.1827C244.287 23.2894 244.527 23.396 244.74 23.5027V24.2627ZM261.886 10.2627H267.246V11.0227C267.02 11.1694 266.76 11.296 266.466 11.4027C266.173 11.496 265.906 11.5627 265.666 11.6027L261.866 16.4227C262.173 16.8494 262.533 17.336 262.946 17.8827C263.36 18.416 263.8 18.976 264.266 19.5627C264.733 20.136 265.213 20.7227 265.706 21.3227C266.2 21.9094 266.68 22.4694 267.146 23.0027L268.106 23.5827V24.2627H264.626L263.826 23.7027C263.506 23.3027 263.166 22.8627 262.806 22.3827C262.46 21.8894 262.113 21.3827 261.766 20.8627C261.42 20.3294 261.08 19.796 260.746 19.2627C260.413 18.7294 260.1 18.2094 259.806 17.7027H258.946V22.9227C259.24 22.976 259.506 23.056 259.746 23.1627C259.986 23.2694 260.193 23.3827 260.366 23.5027V24.2627H254.306V23.5027C254.573 23.3694 254.846 23.256 255.126 23.1627C255.406 23.056 255.68 22.976 255.946 22.9227V11.6027C255.64 11.5627 255.34 11.4894 255.046 11.3827C254.766 11.276 254.52 11.156 254.306 11.0227V10.2627H260.366V11.0227C260.193 11.1294 259.98 11.236 259.726 11.3427C259.486 11.4494 259.226 11.536 258.946 11.6027V16.6827L260.126 16.4027L263.346 11.6027C263.08 11.5494 262.813 11.4694 262.546 11.3627C262.293 11.2427 262.073 11.1294 261.886 11.0227V10.2627Z" fill="white"/>
<path d="M85.3271 37.2417H81.2139V48.6499H79.5352V37.2417H75.4307V35.853H85.3271V37.2417ZM89.4492 46.2681L91.6641 39.1401H93.4043L89.5811 50.1177C88.9893 51.6997 88.0488 52.4907 86.7598 52.4907L86.4521 52.4644L85.8457 52.3501V51.0317L86.2852 51.0669C86.8359 51.0669 87.2637 50.9556 87.5684 50.7329C87.8789 50.5103 88.1338 50.103 88.333 49.5112L88.6934 48.5444L85.3008 39.1401H87.0762L89.4492 46.2681ZM102.896 44.0005C102.896 45.4478 102.565 46.6138 101.903 47.4985C101.241 48.3833 100.345 48.8257 99.2139 48.8257C98.0596 48.8257 97.1514 48.4595 96.4893 47.7271V52.3062H94.8633V39.1401H96.3486L96.4277 40.1948C97.0898 39.3745 98.0098 38.9644 99.1875 38.9644C100.33 38.9644 101.232 39.395 101.895 40.2563C102.562 41.1177 102.896 42.3159 102.896 43.8511V44.0005ZM101.271 43.8159C101.271 42.7437 101.042 41.897 100.585 41.2759C100.128 40.6548 99.501 40.3442 98.7041 40.3442C97.7197 40.3442 96.9814 40.7808 96.4893 41.6538V46.1978C96.9756 47.0649 97.7197 47.4985 98.7217 47.4985C99.501 47.4985 100.119 47.1909 100.576 46.5757C101.039 45.9546 101.271 45.0347 101.271 43.8159ZM110.842 48.6499C110.748 48.4624 110.672 48.1284 110.613 47.6479C109.857 48.4331 108.955 48.8257 107.906 48.8257C106.969 48.8257 106.198 48.562 105.595 48.0347C104.997 47.5015 104.698 46.8276 104.698 46.0132C104.698 45.0229 105.073 44.2554 105.823 43.7104C106.579 43.1597 107.64 42.8843 109.005 42.8843H110.587V42.1372C110.587 41.5688 110.417 41.1177 110.077 40.7837C109.737 40.4438 109.236 40.2739 108.574 40.2739C107.994 40.2739 107.508 40.4204 107.115 40.7134C106.723 41.0063 106.526 41.3608 106.526 41.7769H104.892C104.892 41.3022 105.059 40.8452 105.393 40.4058C105.732 39.9604 106.189 39.6089 106.764 39.3511C107.344 39.0933 107.979 38.9644 108.671 38.9644C109.767 38.9644 110.625 39.2397 111.246 39.7905C111.867 40.3354 112.189 41.0884 112.213 42.0493V46.4263C112.213 47.2993 112.324 47.9937 112.547 48.5093V48.6499H110.842ZM108.144 47.4106C108.653 47.4106 109.137 47.2788 109.594 47.0151C110.051 46.7515 110.382 46.4087 110.587 45.9868V44.0356H109.312C107.32 44.0356 106.324 44.6187 106.324 45.7847C106.324 46.2944 106.494 46.6929 106.834 46.98C107.174 47.2671 107.61 47.4106 108.144 47.4106ZM120.905 40.4849H116.52V48.6499H114.885V39.1401H120.905V40.4849ZM126.091 48.8257C124.802 48.8257 123.753 48.4038 122.944 47.5601C122.136 46.7104 121.731 45.5767 121.731 44.1587V43.8599C121.731 42.9165 121.91 42.0757 122.268 41.3374C122.631 40.5933 123.135 40.0132 123.779 39.5972C124.43 39.1753 125.133 38.9644 125.889 38.9644C127.125 38.9644 128.086 39.3716 128.771 40.186C129.457 41.0005 129.8 42.1665 129.8 43.6841V44.3608H123.357C123.381 45.2983 123.653 46.0571 124.175 46.6372C124.702 47.2114 125.37 47.4985 126.179 47.4985C126.753 47.4985 127.239 47.3813 127.638 47.147C128.036 46.9126 128.385 46.6021 128.684 46.2153L129.677 46.9888C128.88 48.2134 127.685 48.8257 126.091 48.8257ZM125.889 40.3003C125.232 40.3003 124.682 40.5405 124.236 41.021C123.791 41.4956 123.516 42.1636 123.41 43.0249H128.174V42.9019C128.127 42.0757 127.904 41.437 127.506 40.9858C127.107 40.5288 126.568 40.3003 125.889 40.3003ZM139.459 48.6499H137.833V44.5894H133.465V48.6499H131.83V39.1401H133.465V43.2622H137.833V39.1401H139.459V48.6499ZM149.145 40.4585H145.954V48.6499H144.328V40.4585H141.199V39.1401H149.145V40.4585ZM153.838 47.4985C154.418 47.4985 154.925 47.3228 155.358 46.9712C155.792 46.6196 156.032 46.1802 156.079 45.6528H157.617C157.588 46.1978 157.4 46.7163 157.055 47.2085C156.709 47.7007 156.246 48.0933 155.666 48.3862C155.092 48.6792 154.482 48.8257 153.838 48.8257C152.543 48.8257 151.512 48.395 150.744 47.5337C149.982 46.6665 149.602 45.4829 149.602 43.9829V43.7104C149.602 42.7847 149.771 41.9614 150.111 41.2407C150.451 40.52 150.938 39.9604 151.57 39.562C152.209 39.1636 152.962 38.9644 153.829 38.9644C154.896 38.9644 155.78 39.2837 156.483 39.9224C157.192 40.561 157.57 41.3901 157.617 42.4097H156.079C156.032 41.7944 155.798 41.2905 155.376 40.8979C154.96 40.4995 154.444 40.3003 153.829 40.3003C153.003 40.3003 152.361 40.5991 151.904 41.1968C151.453 41.7886 151.228 42.647 151.228 43.772V44.0796C151.228 45.1753 151.453 46.019 151.904 46.6108C152.355 47.2026 153 47.4985 153.838 47.4985ZM166.512 40.4585H163.321V48.6499H161.695V40.4585H158.566V39.1401H166.512V40.4585ZM168.243 48.6499V39.1401H171.952C173.218 39.1401 174.188 39.3628 174.861 39.8081C175.541 40.2476 175.881 40.895 175.881 41.7505C175.881 42.1899 175.749 42.5884 175.485 42.9458C175.222 43.2974 174.832 43.5669 174.316 43.7544C174.891 43.8892 175.351 44.1528 175.696 44.5454C176.048 44.938 176.224 45.4067 176.224 45.9517C176.224 46.8247 175.901 47.4927 175.257 47.9556C174.618 48.4185 173.713 48.6499 172.541 48.6499H168.243ZM169.869 44.4751V47.3403H172.559C173.238 47.3403 173.745 47.2144 174.079 46.9624C174.419 46.7104 174.589 46.356 174.589 45.8989C174.589 44.9497 173.892 44.4751 172.497 44.4751H169.869ZM169.869 43.1743H171.97C173.493 43.1743 174.255 42.729 174.255 41.8384C174.255 40.9478 173.534 40.4878 172.093 40.4585H169.869V43.1743ZM177.946 43.8071C177.946 42.8755 178.128 42.0376 178.491 41.2935C178.86 40.5493 179.37 39.9751 180.021 39.5708C180.677 39.1665 181.424 38.9644 182.262 38.9644C183.557 38.9644 184.603 39.4126 185.399 40.3091C186.202 41.2056 186.604 42.3979 186.604 43.8862V44.0005C186.604 44.9263 186.425 45.7583 186.067 46.4966C185.716 47.229 185.209 47.8003 184.547 48.2104C183.891 48.6206 183.135 48.8257 182.279 48.8257C180.99 48.8257 179.944 48.3774 179.142 47.481C178.345 46.5845 177.946 45.3979 177.946 43.9214V43.8071ZM179.581 44.0005C179.581 45.0552 179.824 45.9019 180.311 46.5405C180.803 47.1792 181.459 47.4985 182.279 47.4985C183.105 47.4985 183.762 47.1763 184.248 46.5317C184.734 45.8813 184.978 44.9731 184.978 43.8071C184.978 42.7642 184.729 41.9204 184.23 41.2759C183.738 40.6255 183.082 40.3003 182.262 40.3003C181.459 40.3003 180.812 40.6196 180.319 41.2583C179.827 41.897 179.581 42.811 179.581 44.0005Z" fill="white"/>
<path d="M59.5 30.6361C59.5 47.1641 46.2859 60.551 30 60.551C13.7141 60.551 0.5 47.1641 0.5 30.6361C0.5 14.108 13.7141 0.721191 30 0.721191C46.2859 0.721191 59.5 14.108 59.5 30.6361Z" stroke="white"/>
<path d="M63.2078 10.9024L61.0769 7.75165L59.2867 6.17882L59.2701 4.89266L58.4212 4.27637L57.3559 6.57408L55.7459 5.51563L55.1886 6.08998L55.8148 7.36308L46.5703 16.2987L32.0115 23.49L27.644 24.4699L26.6165 25.0038L23.9038 28.5587L22.7772 32.4067L22.5127 34.534L23.0969 35.8038L23.1586 35.34L24.1991 31.5026L23.2062 39.2519L22.0798 42.745L20 53.3777H21.8884L21.3175 52.4156L22.3093 47.3355L26.0545 39.7532L25.3657 42.6035L28.2919 53.3777H30.2819L29.4497 52.3039L28.0537 48.0824L27.4639 41.7423L29.6087 36.7338L30.8934 35.463L36.845 35.472L37.8978 36.536L35.9732 51.0615L36.05 53.3777H37.9439L37.2455 52.3141L37.506 46.7835L40.4114 36.6595L40.7681 36.662L47.1446 53.3777H49.0591L48.0865 52.3707L46.353 47.6174L43.6351 35.6245L44.3556 29.4719L44.0028 27.7554L44.3345 26.5477L56.7052 12.3082L58.5897 11.935L63.3487 13.6907L63.6867 12.3305L63.2078 10.9024Z" fill="white"/>
</svg>
